<mxfile host="Electron" agent="Mozilla/5.0 (Windows NT 10.0; Win64; x64) AppleWebKit/537.36 (KHTML, like Gecko) draw.io/24.7.17 Chrome/128.0.6613.36 Electron/32.0.1 Safari/537.36" version="24.7.17">
  <diagram name="Page-1" id="2YBvvXClWsGukQMizWep">
    <mxGraphModel dx="780" dy="592" grid="1" gridSize="10" guides="1" tooltips="1" connect="1" arrows="1" fold="1" page="1" pageScale="1" pageWidth="1100" pageHeight="900" math="0" shadow="0">
      <root>
        <mxCell id="0" />
        <mxCell id="1" parent="0" />
        <mxCell id="aM9ryv3xv72pqoxQDRHE-1" value=":Wiagi" style="shape=umlLifeline;perimeter=lifelinePerimeter;whiteSpace=wrap;html=1;container=0;dropTarget=0;collapsible=0;recursiveResize=0;outlineConnect=0;portConstraint=eastwest;newEdgeStyle={&quot;edgeStyle&quot;:&quot;elbowEdgeStyle&quot;,&quot;elbow&quot;:&quot;vertical&quot;,&quot;curved&quot;:0,&quot;rounded&quot;:0};rounded=1;" parent="1" vertex="1">
          <mxGeometry x="40" y="40" width="100" height="850" as="geometry" />
        </mxCell>
        <mxCell id="aM9ryv3xv72pqoxQDRHE-2" value="" style="html=1;points=[];perimeter=orthogonalPerimeter;outlineConnect=0;targetShapes=umlLifeline;portConstraint=eastwest;newEdgeStyle={&quot;edgeStyle&quot;:&quot;elbowEdgeStyle&quot;,&quot;elbow&quot;:&quot;vertical&quot;,&quot;curved&quot;:0,&quot;rounded&quot;:0};" parent="aM9ryv3xv72pqoxQDRHE-1" vertex="1">
          <mxGeometry x="45" y="70" width="10" height="750" as="geometry" />
        </mxCell>
        <mxCell id="aM9ryv3xv72pqoxQDRHE-7" value="parseUserInput(...)" style="html=1;verticalAlign=bottom;endArrow=block;edgeStyle=elbowEdgeStyle;elbow=vertical;curved=0;rounded=0;" parent="1" target="1ialCVmugB1Czv88WBpj-15" edge="1">
          <mxGeometry x="0.3462" relative="1" as="geometry">
            <mxPoint x="195" y="120" as="sourcePoint" />
            <Array as="points">
              <mxPoint x="95" y="120" />
            </Array>
            <mxPoint x="425" y="120" as="targetPoint" />
            <mxPoint as="offset" />
          </mxGeometry>
        </mxCell>
        <mxCell id="1ialCVmugB1Czv88WBpj-14" value="&lt;div&gt;&amp;lt;&amp;lt;class&amp;gt;&amp;gt;&lt;/div&gt;:Parser" style="shape=umlLifeline;rounded=1;perimeter=lifelinePerimeter;whiteSpace=wrap;html=1;container=0;dropTarget=0;collapsible=0;recursiveResize=0;outlineConnect=0;portConstraint=eastwest;newEdgeStyle={&quot;edgeStyle&quot;:&quot;elbowEdgeStyle&quot;,&quot;elbow&quot;:&quot;vertical&quot;,&quot;curved&quot;:0,&quot;rounded&quot;:0};" parent="1" vertex="1">
          <mxGeometry x="210" y="40" width="100" height="820" as="geometry" />
        </mxCell>
        <mxCell id="1ialCVmugB1Czv88WBpj-15" value="" style="html=1;points=[];perimeter=orthogonalPerimeter;outlineConnect=0;targetShapes=umlLifeline;portConstraint=eastwest;newEdgeStyle={&quot;edgeStyle&quot;:&quot;elbowEdgeStyle&quot;,&quot;elbow&quot;:&quot;vertical&quot;,&quot;curved&quot;:0,&quot;rounded&quot;:0};" parent="1ialCVmugB1Czv88WBpj-14" vertex="1">
          <mxGeometry x="45" y="80" width="10" height="400" as="geometry" />
        </mxCell>
        <mxCell id="VLh5bKRLz8x9KIW3gmQL-4" value="" style="html=1;verticalAlign=bottom;endArrow=block;edgeStyle=elbowEdgeStyle;elbow=vertical;curved=0;rounded=0;" parent="1" edge="1">
          <mxGeometry x="0.3462" relative="1" as="geometry">
            <mxPoint x="195" y="220" as="sourcePoint" />
            <Array as="points" />
            <mxPoint x="195" y="220" as="targetPoint" />
            <mxPoint as="offset" />
          </mxGeometry>
        </mxCell>
        <mxCell id="ckLyhrDvlLfpHV3zjBn--1" value="" style="html=1;points=[[0,0,0,0,5],[0,1,0,0,-5],[1,0,0,0,5],[1,1,0,0,-5]];perimeter=orthogonalPerimeter;outlineConnect=0;targetShapes=umlLifeline;portConstraint=eastwest;newEdgeStyle={&quot;curved&quot;:0,&quot;rounded&quot;:0};" parent="1" vertex="1">
          <mxGeometry x="260" y="202" width="10" height="126" as="geometry" />
        </mxCell>
        <mxCell id="ckLyhrDvlLfpHV3zjBn--2" value="parseListCommand(...)" style="html=1;align=left;spacingLeft=2;endArrow=block;rounded=0;edgeStyle=orthogonalEdgeStyle;curved=0;rounded=0;" parent="1" edge="1">
          <mxGeometry relative="1" as="geometry">
            <mxPoint x="265" y="182" as="sourcePoint" />
            <Array as="points">
              <mxPoint x="310" y="182" />
              <mxPoint x="310" y="202" />
            </Array>
            <mxPoint x="271" y="202" as="targetPoint" />
          </mxGeometry>
        </mxCell>
        <mxCell id="ckLyhrDvlLfpHV3zjBn--3" value=":XYZListCommand" style="html=1;align=left;spacingLeft=2;endArrow=block;rounded=0;edgeStyle=orthogonalEdgeStyle;curved=0;rounded=0;dashed=1;" parent="1" edge="1">
          <mxGeometry relative="1" as="geometry">
            <mxPoint x="271" y="328" as="sourcePoint" />
            <Array as="points">
              <mxPoint x="310" y="328" />
              <mxPoint x="310" y="348" />
            </Array>
            <mxPoint x="265" y="348" as="targetPoint" />
          </mxGeometry>
        </mxCell>
        <mxCell id="ckLyhrDvlLfpHV3zjBn--8" value="" style="html=1;verticalAlign=bottom;endArrow=block;curved=0;rounded=0;" parent="1" edge="1">
          <mxGeometry width="80" relative="1" as="geometry">
            <mxPoint x="270" y="233" as="sourcePoint" />
            <mxPoint x="389" y="233" as="targetPoint" />
          </mxGeometry>
        </mxCell>
        <mxCell id="mZwOcjGZXOUaV4S9VtoJ-1" value="XYZListCommand()" style="edgeLabel;html=1;align=center;verticalAlign=middle;resizable=0;points=[];fontSize=12;" parent="ckLyhrDvlLfpHV3zjBn--8" vertex="1" connectable="0">
          <mxGeometry x="0.3047" y="1" relative="1" as="geometry">
            <mxPoint x="-18" y="-8" as="offset" />
          </mxGeometry>
        </mxCell>
        <mxCell id="ckLyhrDvlLfpHV3zjBn--4" value=":XYZListCommand" style="shape=umlLifeline;perimeter=lifelinePerimeter;whiteSpace=wrap;html=1;container=1;dropTarget=0;collapsible=0;recursiveResize=0;outlineConnect=0;portConstraint=eastwest;newEdgeStyle={&quot;curved&quot;:0,&quot;rounded&quot;:0};rounded=1;" parent="1" vertex="1">
          <mxGeometry x="390" y="212" width="140" height="658" as="geometry" />
        </mxCell>
        <mxCell id="ckLyhrDvlLfpHV3zjBn--5" value="" style="html=1;points=[[0,0,0,0,5],[0,1,0,0,-5],[1,0,0,0,5],[1,1,0,0,-5]];perimeter=orthogonalPerimeter;outlineConnect=0;targetShapes=umlLifeline;portConstraint=eastwest;newEdgeStyle={&quot;curved&quot;:0,&quot;rounded&quot;:0};" parent="ckLyhrDvlLfpHV3zjBn--4" vertex="1">
          <mxGeometry x="65" y="40" width="10" height="60" as="geometry" />
        </mxCell>
        <mxCell id="ckLyhrDvlLfpHV3zjBn--13" value="" style="html=1;points=[[0,0,0,0,5],[0,1,0,0,-5],[1,0,0,0,5],[1,1,0,0,-5]];perimeter=orthogonalPerimeter;outlineConnect=0;targetShapes=umlLifeline;portConstraint=eastwest;newEdgeStyle={&quot;curved&quot;:0,&quot;rounded&quot;:0};" parent="ckLyhrDvlLfpHV3zjBn--4" vertex="1">
          <mxGeometry x="65" y="370" width="10" height="79" as="geometry" />
        </mxCell>
        <mxCell id="ckLyhrDvlLfpHV3zjBn--9" value="" style="html=1;verticalAlign=bottom;endArrow=block;curved=0;rounded=0;dashed=1;" parent="1" edge="1">
          <mxGeometry width="80" relative="1" as="geometry">
            <mxPoint x="455" y="312" as="sourcePoint" />
            <mxPoint x="270" y="312" as="targetPoint" />
          </mxGeometry>
        </mxCell>
        <mxCell id="ckLyhrDvlLfpHV3zjBn--10" value="return" style="edgeLabel;html=1;align=center;verticalAlign=middle;resizable=0;points=[];" parent="ckLyhrDvlLfpHV3zjBn--9" vertex="1" connectable="0">
          <mxGeometry x="0.5166" y="-2" relative="1" as="geometry">
            <mxPoint x="-10" y="-11" as="offset" />
          </mxGeometry>
        </mxCell>
        <mxCell id="ckLyhrDvlLfpHV3zjBn--12" value="execute(...)" style="html=1;verticalAlign=bottom;endArrow=block;curved=0;rounded=0;" parent="1" edge="1">
          <mxGeometry x="-0.808" width="80" relative="1" as="geometry">
            <mxPoint x="95" y="582.0000000000001" as="sourcePoint" />
            <mxPoint x="455" y="582.0000000000001" as="targetPoint" />
            <mxPoint as="offset" />
          </mxGeometry>
        </mxCell>
        <mxCell id="ckLyhrDvlLfpHV3zjBn--83" value="" style="html=1;verticalAlign=bottom;endArrow=block;curved=0;rounded=0;exitX=0;exitY=1;exitDx=0;exitDy=-5;exitPerimeter=0;dashed=1;" parent="1" edge="1">
          <mxGeometry x="0.3611" width="80" relative="1" as="geometry">
            <mxPoint x="455" y="661" as="sourcePoint" />
            <mxPoint x="95" y="661" as="targetPoint" />
            <mxPoint as="offset" />
          </mxGeometry>
        </mxCell>
        <mxCell id="WHbYDqlN71XQacUm0mTV-1" value="return" style="edgeLabel;html=1;align=center;verticalAlign=middle;resizable=0;points=[];fontSize=12;" parent="ckLyhrDvlLfpHV3zjBn--83" vertex="1" connectable="0">
          <mxGeometry x="0.4907" y="-2" relative="1" as="geometry">
            <mxPoint x="-57" y="-9" as="offset" />
          </mxGeometry>
        </mxCell>
        <mxCell id="NoPfLGf-hVdP6wL_0lK0-2" value="[User sent a list command]" style="text;html=1;align=center;verticalAlign=middle;resizable=0;points=[];autosize=1;strokeColor=none;fillColor=none;" parent="1" vertex="1">
          <mxGeometry x="260" y="133" width="170" height="30" as="geometry" />
        </mxCell>
        <mxCell id="NoPfLGf-hVdP6wL_0lK0-4" value="" style="group" parent="1" vertex="1" connectable="0">
          <mxGeometry x="180" y="133" width="580" height="920" as="geometry" />
        </mxCell>
        <mxCell id="NoPfLGf-hVdP6wL_0lK0-1" value="alt" style="shape=umlFrame;whiteSpace=wrap;html=1;pointerEvents=0;" parent="NoPfLGf-hVdP6wL_0lK0-4" vertex="1">
          <mxGeometry width="580" height="380" as="geometry" />
        </mxCell>
        <mxCell id="NoPfLGf-hVdP6wL_0lK0-3" value="" style="line;strokeWidth=1;fillColor=none;align=left;verticalAlign=middle;spacingTop=-1;spacingLeft=3;spacingRight=3;rotatable=0;labelPosition=right;points=[];portConstraint=eastwest;strokeColor=default;dashed=1;" parent="NoPfLGf-hVdP6wL_0lK0-4" vertex="1">
          <mxGeometry y="247" width="580" height="8" as="geometry" />
        </mxCell>
        <mxCell id="NoPfLGf-hVdP6wL_0lK0-5" value="[Else]" style="text;html=1;align=center;verticalAlign=middle;resizable=0;points=[];autosize=1;strokeColor=none;fillColor=none;" parent="NoPfLGf-hVdP6wL_0lK0-4" vertex="1">
          <mxGeometry x="79.9954054054054" y="249" width="50" height="30" as="geometry" />
        </mxCell>
        <mxCell id="NoPfLGf-hVdP6wL_0lK0-10" value="return XYZCommand" style="html=1;verticalAlign=bottom;endArrow=block;curved=0;rounded=0;strokeColor=default;dashed=1;" parent="NoPfLGf-hVdP6wL_0lK0-4" edge="1">
          <mxGeometry width="80" relative="1" as="geometry">
            <mxPoint x="75" y="366" as="sourcePoint" />
            <mxPoint x="-85" y="366" as="targetPoint" />
          </mxGeometry>
        </mxCell>
        <mxCell id="NoPfLGf-hVdP6wL_0lK0-11" value=":XYZCommand" style="shape=umlLifeline;perimeter=lifelinePerimeter;whiteSpace=wrap;html=1;container=1;dropTarget=0;collapsible=0;recursiveResize=0;outlineConnect=0;portConstraint=eastwest;newEdgeStyle={&quot;curved&quot;:0,&quot;rounded&quot;:0};rounded=1;" parent="NoPfLGf-hVdP6wL_0lK0-4" vertex="1">
          <mxGeometry x="350" y="279" width="100" height="461" as="geometry" />
        </mxCell>
        <mxCell id="NoPfLGf-hVdP6wL_0lK0-12" value="" style="html=1;points=[[0,0,0,0,5],[0,1,0,0,-5],[1,0,0,0,5],[1,1,0,0,-5]];perimeter=orthogonalPerimeter;outlineConnect=0;targetShapes=umlLifeline;portConstraint=eastwest;newEdgeStyle={&quot;curved&quot;:0,&quot;rounded&quot;:0};" parent="NoPfLGf-hVdP6wL_0lK0-4" vertex="1">
          <mxGeometry x="395" y="319" width="10" height="31" as="geometry" />
        </mxCell>
        <mxCell id="NoPfLGf-hVdP6wL_0lK0-13" value="" style="html=1;verticalAlign=bottom;endArrow=block;curved=0;rounded=0;" parent="NoPfLGf-hVdP6wL_0lK0-4" source="1ialCVmugB1Czv88WBpj-15" edge="1">
          <mxGeometry width="80" relative="1" as="geometry">
            <mxPoint x="120" y="297" as="sourcePoint" />
            <mxPoint x="350" y="297" as="targetPoint" />
          </mxGeometry>
        </mxCell>
        <mxCell id="gF0N9_gCqD7vWZlPf4ie-1" value="XYZCommand()" style="edgeLabel;html=1;align=center;verticalAlign=middle;resizable=0;points=[];fontSize=12;" vertex="1" connectable="0" parent="NoPfLGf-hVdP6wL_0lK0-13">
          <mxGeometry x="-0.0591" y="2" relative="1" as="geometry">
            <mxPoint x="-50" y="-8" as="offset" />
          </mxGeometry>
        </mxCell>
        <mxCell id="NoPfLGf-hVdP6wL_0lK0-17" value="" style="html=1;points=[[0,0,0,0,5],[0,1,0,0,-5],[1,0,0,0,5],[1,1,0,0,-5]];perimeter=orthogonalPerimeter;outlineConnect=0;targetShapes=umlLifeline;portConstraint=eastwest;newEdgeStyle={&quot;curved&quot;:0,&quot;rounded&quot;:0};" parent="NoPfLGf-hVdP6wL_0lK0-4" vertex="1">
          <mxGeometry x="395" y="600" width="10" height="57" as="geometry" />
        </mxCell>
        <mxCell id="NoPfLGf-hVdP6wL_0lK0-19" value="[Else]" style="text;html=1;align=center;verticalAlign=middle;resizable=0;points=[];autosize=1;strokeColor=none;fillColor=none;" parent="NoPfLGf-hVdP6wL_0lK0-4" vertex="1">
          <mxGeometry x="-87" y="557" width="50" height="30" as="geometry" />
        </mxCell>
        <mxCell id="NoPfLGf-hVdP6wL_0lK0-22" value="" style="shape=umlDestroy;whiteSpace=wrap;html=1;strokeWidth=3;targetShapes=umlLifeline;strokeColor=#FF0000;" parent="NoPfLGf-hVdP6wL_0lK0-4" vertex="1">
          <mxGeometry x="265" y="721" width="30" height="30" as="geometry" />
        </mxCell>
        <mxCell id="NoPfLGf-hVdP6wL_0lK0-23" value="" style="shape=umlDestroy;whiteSpace=wrap;html=1;strokeWidth=3;targetShapes=umlLifeline;strokeColor=#FF0000;" parent="NoPfLGf-hVdP6wL_0lK0-4" vertex="1">
          <mxGeometry x="385" y="723" width="30" height="30" as="geometry" />
        </mxCell>
        <mxCell id="NoPfLGf-hVdP6wL_0lK0-24" value="ref" style="shape=umlFrame;whiteSpace=wrap;html=1;pointerEvents=0;swimlaneFillColor=default;" parent="NoPfLGf-hVdP6wL_0lK0-4" vertex="1">
          <mxGeometry x="180" y="460" width="290" height="50" as="geometry" />
        </mxCell>
        <mxCell id="NoPfLGf-hVdP6wL_0lK0-25" value="execute list command" style="text;html=1;align=center;verticalAlign=middle;resizable=0;points=[];autosize=1;strokeColor=none;fillColor=none;" parent="NoPfLGf-hVdP6wL_0lK0-4" vertex="1">
          <mxGeometry x="275" y="471" width="140" height="30" as="geometry" />
        </mxCell>
        <mxCell id="NoPfLGf-hVdP6wL_0lK0-26" value="ref" style="shape=umlFrame;whiteSpace=wrap;html=1;pointerEvents=0;width=40;height=27;swimlaneFillColor=default;" parent="NoPfLGf-hVdP6wL_0lK0-4" vertex="1">
          <mxGeometry x="340" y="607" width="190" height="40" as="geometry" />
        </mxCell>
        <mxCell id="NoPfLGf-hVdP6wL_0lK0-27" value="execute command" style="text;html=1;align=center;verticalAlign=middle;resizable=0;points=[];autosize=1;strokeColor=none;fillColor=none;" parent="NoPfLGf-hVdP6wL_0lK0-4" vertex="1">
          <mxGeometry x="383" y="611" width="120" height="30" as="geometry" />
        </mxCell>
        <mxCell id="aM9ryv3xv72pqoxQDRHE-8" value="return XYZListCommand" style="html=1;verticalAlign=bottom;endArrow=block;dashed=1;edgeStyle=elbowEdgeStyle;elbow=vertical;curved=0;rounded=0;endFill=1;" parent="1" edge="1">
          <mxGeometry relative="1" as="geometry">
            <mxPoint x="95" y="360" as="targetPoint" />
            <Array as="points">
              <mxPoint x="195" y="360" />
            </Array>
            <mxPoint x="255" y="360" as="sourcePoint" />
          </mxGeometry>
        </mxCell>
        <mxCell id="NoPfLGf-hVdP6wL_0lK0-14" value="return" style="html=1;verticalAlign=bottom;endArrow=block;curved=0;rounded=0;dashed=1;" parent="1" edge="1">
          <mxGeometry x="0.8387" width="80" relative="1" as="geometry">
            <mxPoint x="575" y="483" as="sourcePoint" />
            <mxPoint x="265" y="483" as="targetPoint" />
            <mxPoint as="offset" />
          </mxGeometry>
        </mxCell>
        <mxCell id="NoPfLGf-hVdP6wL_0lK0-15" value="alt" style="shape=umlFrame;whiteSpace=wrap;html=1;pointerEvents=0;" parent="1" vertex="1">
          <mxGeometry x="10" y="540" width="760" height="300" as="geometry" />
        </mxCell>
        <mxCell id="NoPfLGf-hVdP6wL_0lK0-16" value="[User sent a list command]" style="text;html=1;align=center;verticalAlign=middle;resizable=0;points=[];autosize=1;strokeColor=none;fillColor=none;" parent="1" vertex="1">
          <mxGeometry x="89" y="538" width="170" height="30" as="geometry" />
        </mxCell>
        <mxCell id="NoPfLGf-hVdP6wL_0lK0-18" value="" style="line;strokeWidth=1;fillColor=none;align=left;verticalAlign=middle;spacingTop=-1;spacingLeft=3;spacingRight=3;rotatable=0;labelPosition=right;points=[];portConstraint=eastwest;strokeColor=inherit;dashed=1;" parent="1" vertex="1">
          <mxGeometry x="10" y="690" width="760" height="8" as="geometry" />
        </mxCell>
        <mxCell id="NoPfLGf-hVdP6wL_0lK0-20" value="execute(...)" style="html=1;verticalAlign=bottom;endArrow=block;curved=0;rounded=0;" parent="1" source="aM9ryv3xv72pqoxQDRHE-2" target="NoPfLGf-hVdP6wL_0lK0-17" edge="1">
          <mxGeometry x="-0.808" width="80" relative="1" as="geometry">
            <mxPoint x="210" y="733.0000000000001" as="sourcePoint" />
            <mxPoint x="570" y="733.0000000000001" as="targetPoint" />
            <mxPoint as="offset" />
          </mxGeometry>
        </mxCell>
        <mxCell id="NoPfLGf-hVdP6wL_0lK0-21" value="" style="html=1;verticalAlign=bottom;endArrow=block;curved=0;rounded=0;dashed=1;" parent="1" edge="1">
          <mxGeometry x="0.3611" width="80" relative="1" as="geometry">
            <mxPoint x="575" y="789.5000000000002" as="sourcePoint" />
            <mxPoint x="95" y="789.5000000000002" as="targetPoint" />
            <mxPoint as="offset" />
          </mxGeometry>
        </mxCell>
        <mxCell id="WHbYDqlN71XQacUm0mTV-2" value="return" style="edgeLabel;html=1;align=center;verticalAlign=middle;resizable=0;points=[];fontSize=12;" parent="NoPfLGf-hVdP6wL_0lK0-21" vertex="1" connectable="0">
          <mxGeometry x="0.6639" y="1" relative="1" as="geometry">
            <mxPoint x="-46" y="-10" as="offset" />
          </mxGeometry>
        </mxCell>
        <mxCell id="NoPfLGf-hVdP6wL_0lK0-28" value="XYZListCommand refers to any list command, such as ListAllCommand, ListSpendingsCommand, ListTagsCommand, etc." style="shape=note2;boundedLbl=1;whiteSpace=wrap;html=1;size=25;verticalAlign=top;align=center;flipV=1;" parent="1" vertex="1">
          <mxGeometry x="510" y="10" width="230" height="110" as="geometry" />
        </mxCell>
        <mxCell id="NoPfLGf-hVdP6wL_0lK0-30" value="" style="endArrow=none;startArrow=none;endFill=0;startFill=0;endSize=8;html=1;verticalAlign=bottom;dashed=1;labelBackgroundColor=none;rounded=0;entryX=0;entryY=0;entryDx=0;entryDy=0;entryPerimeter=0;" parent="1" target="NoPfLGf-hVdP6wL_0lK0-28" edge="1">
          <mxGeometry width="160" relative="1" as="geometry">
            <mxPoint x="480" y="210" as="sourcePoint" />
            <mxPoint x="470" y="60" as="targetPoint" />
          </mxGeometry>
        </mxCell>
        <mxCell id="NoPfLGf-hVdP6wL_0lK0-31" value="XYZCommand refers to any command that is not a list command, such as AddCommand, DeleteCommand, EditCommand, etc." style="shape=note2;boundedLbl=1;whiteSpace=wrap;html=1;size=25;verticalAlign=top;align=center;flipV=1;" parent="1" vertex="1">
          <mxGeometry x="770" y="240" width="260" height="100" as="geometry" />
        </mxCell>
        <mxCell id="NoPfLGf-hVdP6wL_0lK0-32" value="" style="endArrow=none;startArrow=none;endFill=0;startFill=0;endSize=8;html=1;verticalAlign=bottom;dashed=1;labelBackgroundColor=none;rounded=0;entryX=0;entryY=0;entryDx=0;entryDy=0;entryPerimeter=0;" parent="1" target="NoPfLGf-hVdP6wL_0lK0-31" edge="1">
          <mxGeometry width="160" relative="1" as="geometry">
            <mxPoint x="630" y="412" as="sourcePoint" />
            <mxPoint x="800" y="320" as="targetPoint" />
          </mxGeometry>
        </mxCell>
      </root>
    </mxGraphModel>
  </diagram>
</mxfile>
